<svg width="101" height="100" viewBox="0 0 101 100" fill="none" xmlns="http://www.w3.org/2000/svg">
<path d="M50.2616 0.000244141C22.6616 0.000244141 0.261597 22.4002 0.261597 50.0002C0.261597 77.6002 22.6616 100 50.2616 100C77.8616 100 100.262 77.6002 100.262 50.0002C100.262 22.4002 77.8616 0.000244141 50.2616 0.000244141ZM50.2616 15.0002C58.5616 15.0002 65.2616 21.7002 65.2616 30.0002C65.2616 38.3002 58.5616 45.0002 50.2616 45.0002C41.9616 45.0002 35.2616 38.3002 35.2616 30.0002C35.2616 21.7002 41.9616 15.0002 50.2616 15.0002ZM50.2616 86.0002C37.7616 86.0002 26.7116 79.6002 20.2616 69.9002C20.4116 59.9502 40.2616 54.5002 50.2616 54.5002C60.2116 54.5002 80.1116 59.9502 80.2616 69.9002C73.8116 79.6002 62.7616 86.0002 50.2616 86.0002Z" fill="black"/>
</svg>
